# xmcd
#
# Track frame offsets:
#	150
#	11828
#	23256
#	32520
#	42429
#	51713
#	60897
#	73592
#	83344
#	94947
#	103810
#	112917
#
# Disc length: 1673 seconds
#
# Revision: 0
# Processed by: cddbd v1.5.2PL0 Copyright (c) Steve Scherf et al.
# Submitted via: EZCDAudioConverter 2.4.0.1
#
DISCID=8d06870c
DTITLE=David Houston - New Voice From Nashville
DYEAR=1964
DGENRE=Country
TTITLE0=One If For Him  Two If For Me
TTITLE1=Passing Trough
TTITLE2=I Told Them All About You
TTITLE3=Love Looks Good On You
TTITLE4=Cowpoke
TTITLE5=My Little Lady
TTITLE6=Mountain Of Love
TTITLE7=Chickashay
TTITLE8=I'll Take You Home Again  Kathleen
TTITLE9=Losing You Is Something New
TTITLE10=Whippoorwhill
TTITLE11=The Snakes Crawl At Night
EXTD=
EXTT0=
EXTT1=
EXTT2=
EXTT3=
EXTT4=
EXTT5=
EXTT6=
EXTT7=
EXTT8=
EXTT9=
EXTT10=
EXTT11=
PLAYORDER=
